<svg width="480" height="300" viewBox="0 0 480 300" fill="none" xmlns="http://www.w3.org/2000/svg">
  <rect width="480" height="300" rx="28" fill="#0F172A"/>
  <rect x="32" y="32" width="416" height="32" rx="12" fill="#1E293B"/>
  <rect x="48" y="40" width="160" height="16" rx="8" fill="#38BDF8" opacity="0.8"/>
  <rect x="220" y="40" width="96" height="16" rx="8" fill="#475569"/>
  <rect x="48" y="88" width="144" height="144" rx="18" fill="#1E293B"/>
  <rect x="220" y="88" width="228" height="96" rx="18" fill="#1E293B"/>
  <rect x="220" y="200" width="228" height="48" rx="16" fill="#1E293B"/>
  <path d="M76 144C88.1503 126.343 108.594 117.878 128 128C147.406 138.122 155.85 162.657 148 184" stroke="#38BDF8" stroke-width="8" stroke-linecap="round"/>
  <rect x="240" y="112" width="64" height="12" rx="6" fill="#38BDF8"/>
  <rect x="240" y="136" width="112" height="12" rx="6" fill="#94A3B8"/>
  <rect x="240" y="224" width="168" height="12" rx="6" fill="#38BDF8" opacity="0.75"/>
  <rect x="240" y="248" width="120" height="12" rx="6" fill="#94A3B8" opacity="0.65"/>
</svg>
