<svg width="480" height="300" viewBox="0 0 480 300" fill="none" xmlns="http://www.w3.org/2000/svg">
  <rect width="480" height="300" rx="28" fill="#F8FAFC"/>
  <rect x="32" y="32" width="224" height="16" rx="8" fill="#CBD5F5"/>
  <rect x="32" y="64" width="160" height="10" rx="5" fill="#E2E8F0"/>
  <rect x="32" y="88" width="288" height="40" rx="12" fill="#EEF2FF"/>
  <rect x="32" y="140" width="416" height="96" rx="18" fill="#E0E7FF"/>
  <rect x="56" y="156" width="120" height="12" rx="6" fill="white" opacity="0.6"/>
  <rect x="56" y="176" width="96" height="10" rx="5" fill="white" opacity="0.45"/>
  <rect x="200" y="156" width="96" height="12" rx="6" fill="#4338CA" opacity="0.9"/>
  <rect x="200" y="176" width="120" height="10" rx="5" fill="#4C1D95" opacity="0.55"/>
  <rect x="336" y="156" width="72" height="12" rx="6" fill="#312E81" opacity="0.75"/>
  <rect x="336" y="176" width="88" height="10" rx="5" fill="#4338CA" opacity="0.4"/>
  <rect x="32" y="248" width="128" height="32" rx="16" fill="#4338CA"/>
  <rect x="176" y="248" width="128" height="32" rx="16" fill="#E2E8F0"/>
</svg>
