<svg width="64" height="64" viewBox="0 0 64 64" fill="none" xmlns="http://www.w3.org/2000/svg">
  <rect width="64" height="64" rx="14" fill="#0B0D11"/>
  <path fill-rule="evenodd" clip-rule="evenodd" d="M32 10C21.5066 10 13 18.5066 13 29.0001C13 37.0848 18.2104 43.974 25.5889 46.6489C26.4501 46.8119 26.7703 46.2968 26.7703 45.8525C26.7703 45.4581 26.7559 44.4151 26.7482 43.0904C21.6877 44.1947 20.6377 40.6588 20.6377 40.6588C19.8652 38.7131 18.7235 38.1946 18.7235 38.1946C17.1552 37.1199 18.8412 37.1421 18.8412 37.1421C20.5732 37.2613 21.4837 38.9117 21.4837 38.9117C23.0323 41.5601 25.5408 40.8201 26.5254 40.3898C26.6807 39.273 27.1232 38.5176 27.6101 38.0899C23.4901 37.6579 19.1535 36.1574 19.1535 29.6695C19.1535 27.7423 19.8425 26.1329 20.9977 24.8486C20.8142 24.4156 20.2094 22.6684 21.1718 20.3723C21.1718 20.3723 22.7043 19.9081 26.727 22.5462C28.1699 22.1451 29.7023 21.9448 31.2346 21.9369C32.7669 21.9448 34.2993 22.1451 35.7423 22.5462C39.765 19.9081 41.2963 20.3723 41.2963 20.3723C42.2598 22.6684 41.6548 24.4156 41.4714 24.8486C42.6286 26.1329 43.3156 27.7423 43.3156 29.6695C43.3156 36.1761 38.9709 37.6518 34.8388 38.0717C35.4554 38.6055 36.0006 39.6655 36.0006 41.2353C36.0006 43.5292 35.9803 45.3089 35.9803 45.8525C35.9803 46.3018 36.2959 46.8211 37.1703 46.6477C44.5456 43.9704 49.7566 37.0839 49.7566 29.0001C49.7566 18.5066 41.2499 10 32 10Z" fill="white"/>
</svg>
