<svg width="64" height="64" viewBox="0 0 64 64" fill="none" xmlns="http://www.w3.org/2000/svg">
  <rect width="64" height="64" rx="14" fill="#0B1727"/>
  <path d="M26.5714 16C23.4915 16 21 18.4915 21 21.5714V26.5714H26.5714C29.6514 26.5714 32.1428 24.0799 32.1428 21C32.1428 17.9201 29.6514 16 26.5714 16Z" fill="#36C5F0"/>
  <path d="M16 26.5714C16 23.4915 18.4915 21 21.5714 21H26.5714V26.5714C26.5714 29.6514 24.0799 32.1428 21 32.1428C17.9201 32.1428 16 29.6514 16 26.5714Z" fill="#2EB67D"/>
  <path d="M37.4286 16C40.5085 16 43 18.4915 43 21.5714V26.5714H37.4286C34.3486 26.5714 31.8572 24.0799 31.8572 21C31.8572 17.9201 34.3486 16 37.4286 16Z" fill="#ECB22E"/>
  <path d="M48 26.5714C48 23.4915 45.5085 21 42.4286 21H37.4286V26.5714C37.4286 29.6514 39.9201 32.1428 43 32.1428C46.0799 32.1428 48 29.6514 48 26.5714Z" fill="#E01E5A"/>
  <path d="M26.5714 48C23.4915 48 21 45.5085 21 42.4286V37.4286H26.5714C29.6514 37.4286 32.1428 39.9201 32.1428 43C32.1428 46.0799 29.6514 48 26.5714 48Z" fill="#E01E5A"/>
  <path d="M16 37.4286C16 40.5085 18.4915 43 21.5714 43H26.5714V37.4286C26.5714 34.3486 24.0799 31.8572 21 31.8572C17.9201 31.8572 16 34.3486 16 37.4286Z" fill="#ECB22E"/>
  <path d="M37.4286 48C40.5085 48 43 45.5085 43 42.4286V37.4286H37.4286C34.3486 37.4286 31.8572 39.9201 31.8572 43C31.8572 46.0799 34.3486 48 37.4286 48Z" fill="#2EB67D"/>
  <path d="M48 37.4286C48 40.5085 45.5085 43 42.4286 43H37.4286V37.4286C37.4286 34.3486 39.9201 31.8572 43 31.8572C46.0799 31.8572 48 34.3486 48 37.4286Z" fill="#36C5F0"/>
</svg>
